/* XPM */
static char * maximize_pressed_xpm[] = {
"24 24 3 1",
" 	c None",
".	c #3D6099",
"+	c #000000",
"   ..................   ",
"   ..................   ",
"   ..++++++++++++++..   ",
"   ..++++++++++++++..   ",
"   ..++++++++++++++..   ",
"   ..++..........++..   ",
"   ..++..........++..   ",
"   ..++..........++..   ",
"   ..++..........++..   ",
"   ..++..........++..   ",
"   ..++..........++..   ",
"   ..++..........++..   ",
"   ..++++++++++++++..   ",
"   ..++++++++++++++..   ",
"   ..................   ",
"   ..................   ",
"                        ",
"                        ",
"                        ",
"                        ",
"                        ",
"                        ",
"                        ",
"                        "};
