/* XPM */
static char * title_1_active_xpm[] = {
"2 26 24 1",
" 	c None",
".	c #BDBDBD",
"+	c #868686",
"@	c #818181",
"#	c #7E7E7E",
"$	c #787878",
"%	c #737373",
"&	c #6F6F6F",
"*	c #6A6A6A",
"=	c #646464",
"-	c #5F5F5F",
";	c #5A5A5A",
">	c #575757",
",	c #414141",
"'	c #212121",
")	c #1B1B1B",
"!	c #1A1A1A",
"~	c #161616",
"{	c #121212",
"]	c #0D0D0D",
"^	c #0A0A0A",
"/	c #050505",
"(	c #020202",
"_	c #000000",
"..",
"++",
"@@",
"##",
"$$",
"%%",
"&&",
"**",
"==",
"--",
";;",
">>",
",,",
"''",
"))",
"!!",
"~~",
"{{",
"]]",
"^^",
"//",
"((",
"__",
"__",
"__",
"__"};
