/* XPM */
static char * top_right_active_xpm[] = {
"2 26 41 1",
" 	c None",
".	c #BDBDBD",
"+	c #868686",
"@	c #BBBBBB",
"#	c #828282",
"$	c #B8B8B8",
"%	c #808080",
"&	c #B7B7B7",
"*	c #7C7C7C",
"=	c #B4B4B4",
"-	c #787878",
";	c #B0B0B0",
">	c #767676",
",	c #AEAEAE",
"'	c #737373",
")	c #ABABAB",
"!	c #707070",
"~	c #A9A9A9",
"{	c #6D6D6D",
"]	c #A5A5A5",
"^	c #6B6B6B",
"/	c #A3A3A3",
"(	c #696969",
"_	c #A1A1A1",
":	c #5C5C5C",
"<	c #949494",
"[	c #424242",
"}	c #838383",
"|	c #3F3F3F",
"1	c #414141",
"2	c #7F7F7F",
"3	c #404040",
"4	c #7A7A7A",
"5	c #3E3E3E",
"6	c #777777",
"7	c #3D3D3D",
"8	c #757575",
"9	c #3B3B3B",
"0	c #393939",
"a	c #717171",
"b	c #383838",
"..",
"+@",
"#$",
"%&",
"*=",
"-;",
">,",
"')",
"!~",
"{]",
"^/",
"(_",
":<",
"[}",
"|%",
"12",
"1*",
"34",
"56",
"78",
"9'",
"0a",
"b!",
"b!",
"b!",
"b!"};
