/* XPM */
static char * top_left_active_xpm[] = {
"2 26 41 1",
" 	c None",
".	c #BDBDBD",
"+	c #BBBBBB",
"@	c #868686",
"#	c #B8B8B8",
"$	c #828282",
"%	c #B7B7B7",
"&	c #808080",
"*	c #B4B4B4",
"=	c #7C7C7C",
"-	c #B0B0B0",
";	c #787878",
">	c #AEAEAE",
",	c #767676",
"'	c #ABABAB",
")	c #737373",
"!	c #A9A9A9",
"~	c #707070",
"{	c #A5A5A5",
"]	c #6D6D6D",
"^	c #A3A3A3",
"/	c #6B6B6B",
"(	c #A1A1A1",
"_	c #696969",
":	c #949494",
"<	c #5C5C5C",
"[	c #838383",
"}	c #424242",
"|	c #3F3F3F",
"1	c #7F7F7F",
"2	c #414141",
"3	c #7A7A7A",
"4	c #404040",
"5	c #777777",
"6	c #3E3E3E",
"7	c #757575",
"8	c #3D3D3D",
"9	c #3B3B3B",
"0	c #717171",
"a	c #393939",
"b	c #383838",
"..",
"+@",
"#$",
"%&",
"*=",
"-;",
">,",
"')",
"!~",
"{]",
"^/",
"(_",
":<",
"[}",
"&|",
"12",
"=2",
"34",
"56",
"78",
")9",
"0a",
"~b",
"~b",
"~b",
"~b"};
